<?xml version="1.0" encoding="UTF-8"?>
<svg id="_圖層_1" data-name="圖層_1" xmlns="http://www.w3.org/2000/svg" version="1.1" viewBox="0 0 60 60">
  <!-- Generator: Adobe Illustrator 30.2.1, SVG Export Plug-In . SVG Version: 2.1.1 Build 1)  -->
  <g>
    <path d="M8.601,30.135c.153-2.068,1.13-4.144,2.871-5.269,3.986-2.577,8.109,1.483,8.122,5.545l-1.157.822c-.306-.664-.616-1.335-1.061-1.916-.445-.581-1.042-1.073-1.751-1.256-.708-.183-1.532-.01-2.013.542-.169.194-.291.426-.394.662-.19.434-.325.892-.399,1.36,1.164-.053,2.328.618,2.869,1.649.256.487.378,1.061.248,1.596-.129.535-.537,1.016-1.071,1.148-.212.053-.434.051-.652.033-.511-.041-1.042-.182-1.366-.607-.018.44-.027.88-.026,1.32.397-.255.803-.546,1.27-.657.372-.089.794-.048,1.091.194.512.418.45,1.23.176,1.831-.371.812-1.06,1.484-1.899,1.787-.603.218-1.28.237-1.891.05-.669.353-1.433.58-2.188.502-.715-.074-1.419-.448-1.784-1.068-.737.02-1.429-.482-1.781-1.134-.361-.669-.413-1.465-.327-2.22.216-1.895,1.292-3.675,2.87-4.747" fill="#fff"/>
    <path d="M7.388,38.614c.975,1.542,2.931,1.473,4.403.763.468-.226.059-.923-.408-.698-1.058.511-2.577.667-3.297-.473-.277-.439-.977-.034-.698.408h0Z"/>
    <g>
      <path d="M13.404,35.955c.514-.33,1.735-.933,1.886.102.104.713-.399,1.45-.894,1.906-.584.539-1.381.812-2.173.708-.659-.087-1.743-.603-1.622-1.43.075-.509-.704-.729-.78-.215-.305,2.077,2.424,2.856,3.977,2.244.817-.322,1.505-.937,1.928-1.707.377-.686.586-1.635.087-2.318-.719-.986-1.983-.525-2.817.011-.436.28-.031.98.408.698h0Z"/>
      <path d="M12.588,34.23c-.029.637-.04,1.275-.033,1.913.006.52.814.521.808,0-.007-.638.004-1.275.033-1.913.023-.52-.785-.519-.808,0h0Z"/>
      <path d="M12.869,34.913c.654.529,1.732.75,2.519.393.787-.357,1.205-1.239,1.131-2.078-.155-1.764-1.845-3.057-3.564-3.009.13.171.26.341.39.512.108-.636.288-1.435.753-1.913.393-.403,1.025-.504,1.555-.368,1.373.351,2.031,1.819,2.57,2.986.086.187.388.263.553.145.325-.231.651-.462.976-.694.142-.101.313-.192.367-.37.1-.332-.023-.824-.075-1.156-.223-1.429-.908-2.796-1.894-3.85-.948-1.014-2.219-1.73-3.616-1.844-1.547-.125-3.081.589-4.151,1.68-1.254,1.277-1.909,3.025-2.051,4.788-.042.519.767.516.808,0,.187-2.316,1.495-4.738,3.825-5.478,2.103-.668,4.158.547,5.293,2.298.667,1.03,1.053,2.226,1.067,3.455.067-.116.133-.233.2-.349l-1.157.822c.184.048.369.097.553.145-.668-1.448-1.579-3.16-3.335-3.411-.706-.101-1.457.076-1.991.564-.62.567-.894,1.535-1.03,2.335-.042.248.105.52.39.512,1.165-.033,2.34.698,2.68,1.845.17.574.088,1.264-.443,1.622-.462.311-1.33.187-1.751-.153-.401-.325-.976.244-.572.572h0Z"/>
      <path d="M8.29,29.951c-1.542,1.067-2.66,2.723-2.995,4.578-.177.979-.18,2.047.307,2.943.431.792,1.271,1.36,2.187,1.331.519-.016.521-.825,0-.808-.77.024-1.385-.551-1.629-1.25-.268-.768-.19-1.632.002-2.408.367-1.485,1.278-2.818,2.536-3.688.425-.294.021-.995-.408-.698h0Z"/>
      <path d="M8.087,38.21c-.264-.51-.37-1.087-.281-1.657.079-.509-.7-.728-.78-.215-.124.797-.009,1.562.363,2.28.239.462.937.054.698-.408h0Z"/>
    </g>
  </g>
  <g>
    <path d="M54.316,28.962c.002.61-.069,1.228-.305,1.789-.546,1.292-2.018,2.124-3.406,1.921-.274-.04-.538-.119-.789-.23-.757.799-2.121.702-2.972.018-.662.656-1.8.537-2.508-.045-.678-.558-1.016-1.435-1.159-2.301-.086-.52-.11-1.066.065-1.564.138-.393.419-.751.786-.932-.358-.866.546-2.257,1.384-2.531-.231-1.149-1.463-1.787-2.592-1.724-1.026.057-1.969.584-2.793,1.199-.622.465-1.201.988-1.725,1.561l-.969-1.289c.73-1.016,1.712-1.824,2.744-2.531,1.434-.982,3.078-1.812,4.815-1.754,1.737.057,3.531,1.261,3.74,2.986,0,0,.01.081.028.234.001,0,.003,0,.005,0,.357-.067.725-.034,1.084.019,1.171.176,2.384.623,3.098,1.552,1.051.846,1.465,2.278,1.467,3.625Z" fill="#fff"/>
    <g>
      <path d="M49.091,23.425c-.245-1.764-1.924-2.991-3.604-3.233-2.135-.307-4.192.785-5.872,1.988-.971.695-1.856,1.481-2.563,2.448-.076.104-.078.304,0,.408.323.43.646.859.969,1.289.148.197.441.291.635.082.983-1.062,2.227-2.193,3.668-2.553,1.09-.272,2.489.117,2.766,1.338.094-.166.188-.331.282-.497-1.083.391-2.06,1.829-1.68,2.994.161.492.942.282.78-.215-.236-.722.432-1.752,1.115-1.999.213-.077.334-.27.282-.497-.333-1.47-1.92-2.177-3.315-1.986-1.761.241-3.305,1.585-4.47,2.844.212.027.423.055.635.082-.323-.43-.646-.859-.969-1.289v.408c.699-.957,1.627-1.721,2.599-2.386,1.007-.689,2.095-1.301,3.295-1.572,1.032-.233,2.107-.16,3.045.355.853.469,1.486,1.227,1.622,2.207.071.513.85.295.78-.215h0Z"/>
      <path d="M49.414,26.313c-.279.414-.633.835-1.125.993-.464.148-.952.019-1.177-.435-.437-.884.339-1.991,1.075-2.453.831-.521,1.955-.237,2.819.075.437.158.868.383,1.217.693.163.145.293.318.447.469.168.163.341.312.485.5.562.737.792,1.692.823,2.604.034,1.014-.152,2.03-.919,2.748-.619.581-1.525.904-2.372.759-.844-.144-1.579-.704-1.997-1.443-.479-.847-.533-2.163.31-2.816.375-.29.9-.408,1.34-.2.455.215.724.707.909,1.151.085.203.267.343.497.282.191-.05.366-.296.282-.497-.224-.537-.495-1.059-.962-1.425-.49-.384-1.112-.509-1.716-.36-1.258.31-1.915,1.627-1.802,2.851.11,1.179.823,2.25,1.85,2.837,1.035.591,2.268.585,3.329.064,2.369-1.164,2.568-4.5,1.369-6.59-.3-.524-.735-.946-1.157-1.369-.431-.432-.964-.739-1.527-.964-1.162-.465-2.673-.758-3.761.02-1.087.777-2.011,2.431-1.109,3.678.429.593,1.158.799,1.856.63.754-.182,1.297-.774,1.714-1.393.292-.433-.408-.838-.698-.408h0Z"/>
      <path d="M48.273,27.853c-.788-.478-1.969-.668-2.618.143-.618.773-.436,2.084-.164,2.962.297.961.92,1.831,1.87,2.225.921.382,1.991.286,2.746-.393.388-.349-.186-.919-.572-.572-.509.458-1.262.472-1.872.221-.679-.279-1.133-.922-1.361-1.599-.208-.618-.406-1.567-.113-2.188.311-.66,1.198-.391,1.676-.101.446.271.853-.428.408-.698h0Z"/>
      <path d="M46.201,28.242c-.225-.889-1.358-1.371-2.179-1.032-1.145.474-1.347,1.801-1.186,2.889.157,1.057.598,2.157,1.515,2.776.84.567,1.962.581,2.762-.052.408-.323-.168-.891-.572-.572-.509.403-1.283.276-1.782-.074-.606-.424-.909-1.164-1.064-1.861-.159-.71-.243-1.648.358-2.184.402-.359,1.219-.266,1.369.325.127.504.907.291.78-.215h0Z"/>
    </g>
  </g>
  <metadata><?xpacket begin="﻿" id="W5M0MpCehiHzreSzNTczkc9d"?>
<x:xmpmeta xmlns:x="adobe:ns:meta/" x:xmptk="Adobe XMP Core 10.0-c000 1.000000, 0000/00/00-00:00:00        ">
   <rdf:RDF xmlns:rdf="http://www.w3.org/1999/02/22-rdf-syntax-ns#">
      <rdf:Description rdf:about=""
            xmlns:dc="http://purl.org/dc/elements/1.1/"
            xmlns:xmp="http://ns.adobe.com/xap/1.0/"
            xmlns:xmpGImg="http://ns.adobe.com/xap/1.0/g/img/"
            xmlns:xmpMM="http://ns.adobe.com/xap/1.0/mm/"
            xmlns:stRef="http://ns.adobe.com/xap/1.0/sType/ResourceRef#"
            xmlns:stEvt="http://ns.adobe.com/xap/1.0/sType/ResourceEvent#"
            xmlns:illustrator="http://ns.adobe.com/illustrator/1.0/"
            xmlns:xmpTPg="http://ns.adobe.com/xap/1.0/t/pg/"
            xmlns:stDim="http://ns.adobe.com/xap/1.0/sType/Dimensions#"
            xmlns:xmpG="http://ns.adobe.com/xap/1.0/g/"
            xmlns:pdf="http://ns.adobe.com/pdf/1.3/"
            xmlns:pdfx="http://ns.adobe.com/pdfx/1.3/">
         <dc:format>image/svg+xml</dc:format>
         <dc:title>
            <rdf:Alt>
               <rdf:li xml:lang="x-default">2F互動裝置動畫素材</rdf:li>
            </rdf:Alt>
         </dc:title>
         <xmp:CreatorTool>Adobe Illustrator 30.2 (Macintosh)</xmp:CreatorTool>
         <xmp:CreateDate>2026-06-15T01:08:52+08:00</xmp:CreateDate>
         <xmp:ModifyDate>2026-06-15T01:08:52+08:00</xmp:ModifyDate>
         <xmp:MetadataDate>2026-06-15T01:08:52+08:00</xmp:MetadataDate>
         <xmp:Thumbnails>
            <rdf:Alt>
               <rdf:li rdf:parseType="Resource">
                  <xmpGImg:width>256</xmpGImg:width>
                  <xmpGImg:height>28</xmpGImg:height>
                  <xmpGImg:format>JPEG</xmpGImg:format>
                  <xmpGImg:image>/9j/4AAQSkZJRgABAgEAAAAAAAD/7QAsUGhvdG9zaG9wIDMuMAA4QklNA+0AAAAAABAAAAAAAAEA&#xA;AQAAAAAAAQAB/+4ADkFkb2JlAGTAAAAAAf/bAIQABgQEBAUEBgUFBgkGBQYJCwgGBggLDAoKCwoK&#xA;DBAMDAwMDAwQDA4PEA8ODBMTFBQTExwbGxscHx8fHx8fHx8fHwEHBwcNDA0YEBAYGhURFRofHx8f&#xA;Hx8fHx8fHx8fHx8fHx8fHx8fHx8fHx8fHx8fHx8fHx8fHx8fHx8fHx8fHx8f/8AAEQgAHAEAAwER&#xA;AAIRAQMRAf/EAaIAAAAHAQEBAQEAAAAAAAAAAAQFAwIGAQAHCAkKCwEAAgIDAQEBAQEAAAAAAAAA&#xA;AQACAwQFBgcICQoLEAACAQMDAgQCBgcDBAIGAnMBAgMRBAAFIRIxQVEGE2EicYEUMpGhBxWxQiPB&#xA;UtHhMxZi8CRygvElQzRTkqKyY3PCNUQnk6OzNhdUZHTD0uIIJoMJChgZhJRFRqS0VtNVKBry4/PE&#xA;1OT0ZXWFlaW1xdXl9WZ2hpamtsbW5vY3R1dnd4eXp7fH1+f3OEhYaHiImKi4yNjo+Ck5SVlpeYmZ&#xA;qbnJ2en5KjpKWmp6ipqqusra6voRAAICAQIDBQUEBQYECAMDbQEAAhEDBCESMUEFURNhIgZxgZEy&#xA;obHwFMHR4SNCFVJicvEzJDRDghaSUyWiY7LCB3PSNeJEgxdUkwgJChgZJjZFGidkdFU38qOzwygp&#xA;0+PzhJSktMTU5PRldYWVpbXF1eX1RlZmdoaWprbG1ub2R1dnd4eXp7fH1+f3OEhYaHiImKi4yNjo&#xA;+DlJWWl5iZmpucnZ6fkqOkpaanqKmqq6ytrq+v/aAAwDAQACEQMRAD8AgeveaZvNH51y/V9YmvUu&#xA;/MWmxW99YSSWgWCOR7L1bbgZok/dvGBMzA13AKscVfSa/mZ5g1qTTb3y8LKCx1W61Cw0JLw3Eiag&#xA;9sWCXDmG3Jt4x9Xcr8ZqpqR0oqtsvzzjfzL5b8sTaNcSajrcds016tIbVTNFK7vCJCzSKrQ7UO45&#xA;b1WjKvL7385vOOpedbnV57zUdJ8q6ReWca21kisyWOrWzrDdyMYJbeQMzwyokqu/++wKOcVfUmKu&#xA;xV2KuxV2KuxV2KuxV2KuxV2KuxV2KuxV2KuxV2KuxV2KuxV2KuxV2KuxV2KuxV2KuxV41rP/ADjd&#xA;pWofmgPOqajHFas8cl1pEtot0k6hRFNA5lkMQheBSgURbcq9lxVmj/lJ5Ga40hlsfTstCcS6ZpKM&#xA;RYxSB5ZDILb7HNpJ+RbrVV7VBVYdqP8Azj2TfXt7o+twWN1eTyzi4uNOW4mi5q6xLDLHPbNH6Hqs&#xA;U4U3pUUVAqrLYvyd/LwpK17ottdXd1YwadeTsJArRW8Atk9JGdxCVjHFWQhgP2sVZoihVCitFAAq&#xA;STt4k1JxVvFXYq7FXYq7FXYq7FXYq7FXYq7FXYq7FXYq7FXYq7FXYq7FXYq7FXYq7FXYq7FXYq7F&#xA;Uj0Pzt5W13U9Q0vSr9bnUNKYpqFuFkVomWWSAhuar0kgddvDwIxVevm/QW14aD6sq6kzFFR7a4SM&#xA;sI2los7RiFqojlaPvxam6tRVWuPM/l+31iLRZ7+GPVp+Ahsmakr+osroVXuCtvJv/k4q3qvmTRNJ&#xA;vLCy1C6WC61ST0bCIhiZZAVWg4g03kXr44qiL/VLCwEZvJhCJTxjLA0LVAC1A+0zMFUdWJoN8Vbm&#xA;1Owh0x9UmnWPT44TdSXLGiLCqczISegC74qo6tr2kaTo82tahdJDpdvGJpbvd0EZpRvgDEg17Yqs&#xA;0DzLoXmG0lvNFvEvrWCeS1kmirxEsRAdQSBWleo2xVW0vWdK1aCSfTbqO7hilkt5XiYMFliPF0NO&#xA;hU4qt07XdJ1K6vrWxuVuJ9NlEF8qAkRSkcvTZqceQG5ANRUV6jFVRNV0t759PS8ga/jFXtBIhmUU&#xA;rUx15DY16YqlN35/8m2nmNPLdzq0EWuSNEi2JLc+U4LRKTTiC4Xap8PEYqnc11awNEs8yRNO3pwq&#xA;7BS7kV4rU7nboMVQWveY9F0C0S81e5FrbO/prKUdxz4M9PgVuqoaeJ26kYqibnUtPtLB9QurmK3s&#xA;I09WS6lcRxqlK8mdiAB88Vbh1CymsI9QSZfqUsSzpcMeKGNl5BqtSgoa74q1Yanp2o2q3en3UN5a&#xA;vuk9u6yodgdmQsDscVW6VqdrqdjHeW3NUkHxRSqY5Y3GzRyI26Oh2ZT0ONqQtsta0m+urq0s7uKe&#xA;5sWCXcUbAtGxrQN9xHzBHUY0qjb+YbKfzBdaGkcourSJZpJCo9Iq3HZWrWvxjtkBMXSa2V59X0+C&#xA;+isZZStzNT014uVNTQDmBwBPgTkDnhx8F+ruYk0t1DXNH06e2t768it7i8bhaQOwEkrclWkafaah&#xA;da0G3U7Zcldqus6XpMEc+o3C20U0qW8bvWhlkNEXavXFVW7vrKzWNru4it1mkWGIyuqB5H2VF5EV&#xA;ZuwG+KoWDzHoE+iDXY9Qt/0MUMn6RaRUt+CkqXMjEKFqOtcVRFtqWn3UU01vcRyxW8kkNw6sKRyQ&#xA;sVkR/wCUqRvXFVHSde0jV1mbTblbkQMEm41HEkVHUDYjcHuN8VU9O8zeX9TuEt9Ov4byWSA3Segw&#xA;kUwrKYS/Jar/AHiMvXqD4HFV1t5j0K51B9OhvoXv45JYWteYEnqQLG8qhTuSizITTswxVfPrmkwa&#xA;lDpkt0g1C43ithUuRRiCQK8QQjUr4HwxVrVde0jSomkv7lYuPpkxgF5KSyrAhEaBnIMkirUDFVXU&#xA;dW0zTY45dQuo7WOaRYImlYLyketFWvU0BPyBPQHFUFo3+Ev0hqX6F+ofpHmP0v8AU/R9f1PUlp9Z&#xA;9L4+Xqer9v8Aa5d64qhrf/AH+JW+r/or/E/OXn6f1b6/z9OP1q0/fV9P0+f+TxrtTFUxuv0B+kIP&#xA;rf1X9I1H1X1fT9eu9PT5fH49MVRM/wBT9SD6x6fqep/ovqca+rwb+7r+1w5dN6VxVCa3/h76un6c&#xA;+qfVqv6f130uFfSfnT1dq+lzr/k17VxVHSej6Lepx9HiefKnHjTetdqUxVSvv0f9Rl+vej9R4/vv&#xA;X4+lw/yuXw0+eKrNN/RPCb9G+hw9Z/rH1bhT19ufPh+3/NXfFVe3+r+n/o/D0+Tf3dOPLkefTvyr&#xA;X3xVbb/UvUuPq/p+p6n+l+nx5erwX+8p+16fDrvxp2piqtiqRXn+Bv8AEEP1z9Gf4i5x/V/W+r/X&#xA;efB/T4cv3vLhz407Vp3xVPcVSzXv8NfVk/T/ANS+q1fh9f8AS9Ovpt6lPV2/uufL/Jr2xVGSfUfq&#xA;Lep6X1D0jz5cfR9HjvWvw8OP0UxVXFKCnTtTpTFXYqoQfUfrNz6Hp/WOS/W+FOXPgOPOnfhx69qY&#xA;EoHSv8LfXLn9E/Ufrv8Ax+fVPR9Xr/u30/i+1/Nkt0K0X6D/AE3cel6H6Z9FPrHHj63o1PHl3pX+&#xA;HtkdrSil+q/Wn48PrXBfUpT1PTq3CvfjXlT6cdr82O1tSfUvrcPqen9b4v8AV+XH1OPw+pwr8VPs&#xA;8qe2FK2+/R3pJ9f9H0ua+n6/Hj6n7NOe3LwxV17+j/TT696Xp+onpevx4+ryHp8eX7fKnHvXpiq+&#xA;b6p9X/fen9Wov2+PClRx67daUxVUfhwbnThQ8q9Kd61xVSs/qX1dfqXp/V6Dh6PHhSgpTjt0piq6&#xA;H6t8XocOrc+FPtc25Vp358q+9cVaH1X19vT9eu/TnXiPp+zT6MVU1/Rv6Sbj6P6S9Ic6cPX9HkeN&#xA;f2+HKtO1cVcf0Z+k1r6P6U9FuFeHr+hzHKn7fp86V7VxVbqn6I+qn9K/V/qlTX61w9OvE1/vPh+z&#xA;X6MVf//Z</xmpGImg:image>
               </rdf:li>
            </rdf:Alt>
         </xmp:Thumbnails>
         <xmpMM:RenditionClass>default</xmpMM:RenditionClass>
         <xmpMM:OriginalDocumentID>uuid:65E6390686CF11DBA6E2D887CEACB407</xmpMM:OriginalDocumentID>
         <xmpMM:DocumentID>xmp.did:e937bd8a-96ef-4956-b586-ad08c765cce5</xmpMM:DocumentID>
         <xmpMM:InstanceID>xmp.iid:e937bd8a-96ef-4956-b586-ad08c765cce5</xmpMM:InstanceID>
         <xmpMM:DerivedFrom rdf:parseType="Resource">
            <stRef:instanceID>xmp.iid:7908d139-fa91-43d2-9033-6fff652efb4f</stRef:instanceID>
            <stRef:documentID>xmp.did:7908d139-fa91-43d2-9033-6fff652efb4f</stRef:documentID>
            <stRef:originalDocumentID>uuid:65E6390686CF11DBA6E2D887CEACB407</stRef:originalDocumentID>
            <stRef:renditionClass>default</stRef:renditionClass>
         </xmpMM:DerivedFrom>
         <xmpMM:History>
            <rdf:Seq>
               <rdf:li rdf:parseType="Resource">
                  <stEvt:action>saved</stEvt:action>
                  <stEvt:instanceID>xmp.iid:b161945e-395f-874b-9efa-5cf437b90c72</stEvt:instanceID>
                  <stEvt:when>2026-06-02T15:41:12+08:00</stEvt:when>
                  <stEvt:softwareAgent>Adobe Illustrator 29.7 (Windows)</stEvt:softwareAgent>
                  <stEvt:changed>/</stEvt:changed>
               </rdf:li>
               <rdf:li rdf:parseType="Resource">
                  <stEvt:action>saved</stEvt:action>
                  <stEvt:instanceID>xmp.iid:e937bd8a-96ef-4956-b586-ad08c765cce5</stEvt:instanceID>
                  <stEvt:when>2026-06-15T01:08:52+08:00</stEvt:when>
                  <stEvt:softwareAgent>Adobe Illustrator 30.2 (Macintosh)</stEvt:softwareAgent>
                  <stEvt:changed>/</stEvt:changed>
               </rdf:li>
            </rdf:Seq>
         </xmpMM:History>
         <illustrator:StartupProfile>Web</illustrator:StartupProfile>
         <illustrator:CreatorSubTool>Adobe Illustrator</illustrator:CreatorSubTool>
         <illustrator:IsFileSavedViaInstantSave>False</illustrator:IsFileSavedViaInstantSave>
         <xmpTPg:NPages>1</xmpTPg:NPages>
         <xmpTPg:HasVisibleTransparency>False</xmpTPg:HasVisibleTransparency>
         <xmpTPg:HasVisibleOverprint>False</xmpTPg:HasVisibleOverprint>
         <xmpTPg:MaxPageSize rdf:parseType="Resource">
            <stDim:w>428.543427</stDim:w>
            <stDim:h>160.450703</stDim:h>
            <stDim:unit>Pixels</stDim:unit>
         </xmpTPg:MaxPageSize>
         <xmpTPg:PlateNames>
            <rdf:Seq>
               <rdf:li>Cyan</rdf:li>
               <rdf:li>Magenta</rdf:li>
               <rdf:li>Yellow</rdf:li>
               <rdf:li>Black</rdf:li>
            </rdf:Seq>
         </xmpTPg:PlateNames>
         <xmpTPg:SwatchGroups>
            <rdf:Seq>
               <rdf:li rdf:parseType="Resource">
                  <xmpG:groupName>預設色票群組</xmpG:groupName>
                  <xmpG:groupType>0</xmpG:groupType>
                  <xmpG:Colorants>
                     <rdf:Seq>
                        <rdf:li rdf:parseType="Resource">
                           <xmpG:swatchName>白色</xmpG:swatchName>
                           <xmpG:mode>RGB</xmpG:mode>
                           <xmpG:type>PROCESS</xmpG:type>
                           <xmpG:red>255</xmpG:red>
                           <xmpG:green>255</xmpG:green>
                           <xmpG:blue>255</xmpG:blue>
                        </rdf:li>
                        <rdf:li rdf:parseType="Resource">
                           <xmpG:swatchName>黑色</xmpG:swatchName>
                           <xmpG:mode>RGB</xmpG:mode>
                           <xmpG:type>PROCESS</xmpG:type>
                           <xmpG:red>0</xmpG:red>
                           <xmpG:green>0</xmpG:green>
                           <xmpG:blue>0</xmpG:blue>
                        </rdf:li>
                        <rdf:li rdf:parseType="Resource">
                           <xmpG:swatchName>RGB 紅色</xmpG:swatchName>
                           <xmpG:mode>RGB</xmpG:mode>
                           <xmpG:type>PROCESS</xmpG:type>
                           <xmpG:red>255</xmpG:red>
                           <xmpG:green>0</xmpG:green>
                           <xmpG:blue>0</xmpG:blue>
                        </rdf:li>
                        <rdf:li rdf:parseType="Resource">
                           <xmpG:swatchName>RGB 黃色</xmpG:swatchName>
                           <xmpG:mode>RGB</xmpG:mode>
                           <xmpG:type>PROCESS</xmpG:type>
                           <xmpG:red>255</xmpG:red>
                           <xmpG:green>255</xmpG:green>
                           <xmpG:blue>0</xmpG:blue>
                        </rdf:li>
                        <rdf:li rdf:parseType="Resource">
                           <xmpG:swatchName>RGB 綠色</xmpG:swatchName>
                           <xmpG:mode>RGB</xmpG:mode>
                           <xmpG:type>PROCESS</xmpG:type>
                           <xmpG:red>0</xmpG:red>
                           <xmpG:green>255</xmpG:green>
                           <xmpG:blue>0</xmpG:blue>
                        </rdf:li>
                        <rdf:li rdf:parseType="Resource">
                           <xmpG:swatchName>RGB 青色</xmpG:swatchName>
                           <xmpG:mode>RGB</xmpG:mode>
                           <xmpG:type>PROCESS</xmpG:type>
                           <xmpG:red>0</xmpG:red>
                           <xmpG:green>255</xmpG:green>
                           <xmpG:blue>255</xmpG:blue>
                        </rdf:li>
                        <rdf:li rdf:parseType="Resource">
                           <xmpG:swatchName>RGB 藍色</xmpG:swatchName>
                           <xmpG:mode>RGB</xmpG:mode>
                           <xmpG:type>PROCESS</xmpG:type>
                           <xmpG:red>0</xmpG:red>
                           <xmpG:green>0</xmpG:green>
                           <xmpG:blue>255</xmpG:blue>
                        </rdf:li>
                        <rdf:li rdf:parseType="Resource">
                           <xmpG:swatchName>RGB 洋紅色</xmpG:swatchName>
                           <xmpG:mode>RGB</xmpG:mode>
                           <xmpG:type>PROCESS</xmpG:type>
                           <xmpG:red>255</xmpG:red>
                           <xmpG:green>0</xmpG:green>
                           <xmpG:blue>255</xmpG:blue>
                        </rdf:li>
                        <rdf:li rdf:parseType="Resource">
                           <xmpG:swatchName>R=193 G=39 B=45</xmpG:swatchName>
                           <xmpG:mode>RGB</xmpG:mode>
                           <xmpG:type>PROCESS</xmpG:type>
                           <xmpG:red>193</xmpG:red>
                           <xmpG:green>39</xmpG:green>
                           <xmpG:blue>45</xmpG:blue>
                        </rdf:li>
                        <rdf:li rdf:parseType="Resource">
                           <xmpG:swatchName>R=237 G=28 B=36</xmpG:swatchName>
                           <xmpG:mode>RGB</xmpG:mode>
                           <xmpG:type>PROCESS</xmpG:type>
                           <xmpG:red>237</xmpG:red>
                           <xmpG:green>28</xmpG:green>
                           <xmpG:blue>36</xmpG:blue>
                        </rdf:li>
                        <rdf:li rdf:parseType="Resource">
                           <xmpG:swatchName>R=241 G=90 B=36</xmpG:swatchName>
                           <xmpG:mode>RGB</xmpG:mode>
                           <xmpG:type>PROCESS</xmpG:type>
                           <xmpG:red>241</xmpG:red>
                           <xmpG:green>90</xmpG:green>
                           <xmpG:blue>36</xmpG:blue>
                        </rdf:li>
                        <rdf:li rdf:parseType="Resource">
                           <xmpG:swatchName>R=247 G=147 B=30</xmpG:swatchName>
                           <xmpG:mode>RGB</xmpG:mode>
                           <xmpG:type>PROCESS</xmpG:type>
                           <xmpG:red>247</xmpG:red>
                           <xmpG:green>147</xmpG:green>
                           <xmpG:blue>30</xmpG:blue>
                        </rdf:li>
                        <rdf:li rdf:parseType="Resource">
                           <xmpG:swatchName>R=251 G=176 B=59</xmpG:swatchName>
                           <xmpG:mode>RGB</xmpG:mode>
                           <xmpG:type>PROCESS</xmpG:type>
                           <xmpG:red>251</xmpG:red>
                           <xmpG:green>176</xmpG:green>
                           <xmpG:blue>59</xmpG:blue>
                        </rdf:li>
                        <rdf:li rdf:parseType="Resource">
                           <xmpG:swatchName>R=252 G=238 B=33</xmpG:swatchName>
                           <xmpG:mode>RGB</xmpG:mode>
                           <xmpG:type>PROCESS</xmpG:type>
                           <xmpG:red>252</xmpG:red>
                           <xmpG:green>238</xmpG:green>
                           <xmpG:blue>33</xmpG:blue>
                        </rdf:li>
                        <rdf:li rdf:parseType="Resource">
                           <xmpG:swatchName>R=217 G=224 B=33</xmpG:swatchName>
                           <xmpG:mode>RGB</xmpG:mode>
                           <xmpG:type>PROCESS</xmpG:type>
                           <xmpG:red>217</xmpG:red>
                           <xmpG:green>224</xmpG:green>
                           <xmpG:blue>33</xmpG:blue>
                        </rdf:li>
                        <rdf:li rdf:parseType="Resource">
                           <xmpG:swatchName>R=140 G=198 B=63</xmpG:swatchName>
                           <xmpG:mode>RGB</xmpG:mode>
                           <xmpG:type>PROCESS</xmpG:type>
                           <xmpG:red>140</xmpG:red>
                           <xmpG:green>198</xmpG:green>
                           <xmpG:blue>63</xmpG:blue>
                        </rdf:li>
                        <rdf:li rdf:parseType="Resource">
                           <xmpG:swatchName>R=57 G=181 B=74</xmpG:swatchName>
                           <xmpG:mode>RGB</xmpG:mode>
                           <xmpG:type>PROCESS</xmpG:type>
                           <xmpG:red>57</xmpG:red>
                           <xmpG:green>181</xmpG:green>
                           <xmpG:blue>74</xmpG:blue>
                        </rdf:li>
                        <rdf:li rdf:parseType="Resource">
                           <xmpG:swatchName>R=0 G=146 B=69</xmpG:swatchName>
                           <xmpG:mode>RGB</xmpG:mode>
                           <xmpG:type>PROCESS</xmpG:type>
                           <xmpG:red>0</xmpG:red>
                           <xmpG:green>146</xmpG:green>
                           <xmpG:blue>69</xmpG:blue>
                        </rdf:li>
                        <rdf:li rdf:parseType="Resource">
                           <xmpG:swatchName>R=0 G=104 B=55</xmpG:swatchName>
                           <xmpG:mode>RGB</xmpG:mode>
                           <xmpG:type>PROCESS</xmpG:type>
                           <xmpG:red>0</xmpG:red>
                           <xmpG:green>104</xmpG:green>
                           <xmpG:blue>55</xmpG:blue>
                        </rdf:li>
                        <rdf:li rdf:parseType="Resource">
                           <xmpG:swatchName>R=34 G=181 B=115</xmpG:swatchName>
                           <xmpG:mode>RGB</xmpG:mode>
                           <xmpG:type>PROCESS</xmpG:type>
                           <xmpG:red>34</xmpG:red>
                           <xmpG:green>181</xmpG:green>
                           <xmpG:blue>115</xmpG:blue>
                        </rdf:li>
                        <rdf:li rdf:parseType="Resource">
                           <xmpG:swatchName>R=0 G=169 B=157</xmpG:swatchName>
                           <xmpG:mode>RGB</xmpG:mode>
                           <xmpG:type>PROCESS</xmpG:type>
                           <xmpG:red>0</xmpG:red>
                           <xmpG:green>169</xmpG:green>
                           <xmpG:blue>157</xmpG:blue>
                        </rdf:li>
                        <rdf:li rdf:parseType="Resource">
                           <xmpG:swatchName>R=41 G=171 B=226</xmpG:swatchName>
                           <xmpG:mode>RGB</xmpG:mode>
                           <xmpG:type>PROCESS</xmpG:type>
                           <xmpG:red>41</xmpG:red>
                           <xmpG:green>171</xmpG:green>
                           <xmpG:blue>226</xmpG:blue>
                        </rdf:li>
                        <rdf:li rdf:parseType="Resource">
                           <xmpG:swatchName>R=0 G=113 B=188</xmpG:swatchName>
                           <xmpG:mode>RGB</xmpG:mode>
                           <xmpG:type>PROCESS</xmpG:type>
                           <xmpG:red>0</xmpG:red>
                           <xmpG:green>113</xmpG:green>
                           <xmpG:blue>188</xmpG:blue>
                        </rdf:li>
                        <rdf:li rdf:parseType="Resource">
                           <xmpG:swatchName>R=46 G=49 B=146</xmpG:swatchName>
                           <xmpG:mode>RGB</xmpG:mode>
                           <xmpG:type>PROCESS</xmpG:type>
                           <xmpG:red>46</xmpG:red>
                           <xmpG:green>49</xmpG:green>
                           <xmpG:blue>146</xmpG:blue>
                        </rdf:li>
                        <rdf:li rdf:parseType="Resource">
                           <xmpG:swatchName>R=27 G=20 B=100</xmpG:swatchName>
                           <xmpG:mode>RGB</xmpG:mode>
                           <xmpG:type>PROCESS</xmpG:type>
                           <xmpG:red>27</xmpG:red>
                           <xmpG:green>20</xmpG:green>
                           <xmpG:blue>100</xmpG:blue>
                        </rdf:li>
                        <rdf:li rdf:parseType="Resource">
                           <xmpG:swatchName>R=102 G=45 B=145</xmpG:swatchName>
                           <xmpG:mode>RGB</xmpG:mode>
                           <xmpG:type>PROCESS</xmpG:type>
                           <xmpG:red>102</xmpG:red>
                           <xmpG:green>45</xmpG:green>
                           <xmpG:blue>145</xmpG:blue>
                        </rdf:li>
                        <rdf:li rdf:parseType="Resource">
                           <xmpG:swatchName>R=147 G=39 B=143</xmpG:swatchName>
                           <xmpG:mode>RGB</xmpG:mode>
                           <xmpG:type>PROCESS</xmpG:type>
                           <xmpG:red>147</xmpG:red>
                           <xmpG:green>39</xmpG:green>
                           <xmpG:blue>143</xmpG:blue>
                        </rdf:li>
                        <rdf:li rdf:parseType="Resource">
                           <xmpG:swatchName>R=158 G=0 B=93</xmpG:swatchName>
                           <xmpG:mode>RGB</xmpG:mode>
                           <xmpG:type>PROCESS</xmpG:type>
                           <xmpG:red>158</xmpG:red>
                           <xmpG:green>0</xmpG:green>
                           <xmpG:blue>93</xmpG:blue>
                        </rdf:li>
                        <rdf:li rdf:parseType="Resource">
                           <xmpG:swatchName>R=212 G=20 B=90</xmpG:swatchName>
                           <xmpG:mode>RGB</xmpG:mode>
                           <xmpG:type>PROCESS</xmpG:type>
                           <xmpG:red>212</xmpG:red>
                           <xmpG:green>20</xmpG:green>
                           <xmpG:blue>90</xmpG:blue>
                        </rdf:li>
                        <rdf:li rdf:parseType="Resource">
                           <xmpG:swatchName>R=237 G=30 B=121</xmpG:swatchName>
                           <xmpG:mode>RGB</xmpG:mode>
                           <xmpG:type>PROCESS</xmpG:type>
                           <xmpG:red>237</xmpG:red>
                           <xmpG:green>30</xmpG:green>
                           <xmpG:blue>121</xmpG:blue>
                        </rdf:li>
                        <rdf:li rdf:parseType="Resource">
                           <xmpG:swatchName>R=199 G=178 B=153</xmpG:swatchName>
                           <xmpG:mode>RGB</xmpG:mode>
                           <xmpG:type>PROCESS</xmpG:type>
                           <xmpG:red>199</xmpG:red>
                           <xmpG:green>178</xmpG:green>
                           <xmpG:blue>153</xmpG:blue>
                        </rdf:li>
                        <rdf:li rdf:parseType="Resource">
                           <xmpG:swatchName>R=153 G=134 B=117</xmpG:swatchName>
                           <xmpG:mode>RGB</xmpG:mode>
                           <xmpG:type>PROCESS</xmpG:type>
                           <xmpG:red>153</xmpG:red>
                           <xmpG:green>134</xmpG:green>
                           <xmpG:blue>117</xmpG:blue>
                        </rdf:li>
                        <rdf:li rdf:parseType="Resource">
                           <xmpG:swatchName>R=115 G=99 B=87</xmpG:swatchName>
                           <xmpG:mode>RGB</xmpG:mode>
                           <xmpG:type>PROCESS</xmpG:type>
                           <xmpG:red>115</xmpG:red>
                           <xmpG:green>99</xmpG:green>
                           <xmpG:blue>87</xmpG:blue>
                        </rdf:li>
                        <rdf:li rdf:parseType="Resource">
                           <xmpG:swatchName>R=83 G=71 B=65</xmpG:swatchName>
                           <xmpG:mode>RGB</xmpG:mode>
                           <xmpG:type>PROCESS</xmpG:type>
                           <xmpG:red>83</xmpG:red>
                           <xmpG:green>71</xmpG:green>
                           <xmpG:blue>65</xmpG:blue>
                        </rdf:li>
                        <rdf:li rdf:parseType="Resource">
                           <xmpG:swatchName>R=198 G=156 B=109</xmpG:swatchName>
                           <xmpG:mode>RGB</xmpG:mode>
                           <xmpG:type>PROCESS</xmpG:type>
                           <xmpG:red>198</xmpG:red>
                           <xmpG:green>156</xmpG:green>
                           <xmpG:blue>109</xmpG:blue>
                        </rdf:li>
                        <rdf:li rdf:parseType="Resource">
                           <xmpG:swatchName>R=166 G=124 B=82</xmpG:swatchName>
                           <xmpG:mode>RGB</xmpG:mode>
                           <xmpG:type>PROCESS</xmpG:type>
                           <xmpG:red>166</xmpG:red>
                           <xmpG:green>124</xmpG:green>
                           <xmpG:blue>82</xmpG:blue>
                        </rdf:li>
                        <rdf:li rdf:parseType="Resource">
                           <xmpG:swatchName>R=140 G=98 B=57</xmpG:swatchName>
                           <xmpG:mode>RGB</xmpG:mode>
                           <xmpG:type>PROCESS</xmpG:type>
                           <xmpG:red>140</xmpG:red>
                           <xmpG:green>98</xmpG:green>
                           <xmpG:blue>57</xmpG:blue>
                        </rdf:li>
                        <rdf:li rdf:parseType="Resource">
                           <xmpG:swatchName>R=117 G=76 B=36</xmpG:swatchName>
                           <xmpG:mode>RGB</xmpG:mode>
                           <xmpG:type>PROCESS</xmpG:type>
                           <xmpG:red>117</xmpG:red>
                           <xmpG:green>76</xmpG:green>
                           <xmpG:blue>36</xmpG:blue>
                        </rdf:li>
                        <rdf:li rdf:parseType="Resource">
                           <xmpG:swatchName>R=96 G=56 B=19</xmpG:swatchName>
                           <xmpG:mode>RGB</xmpG:mode>
                           <xmpG:type>PROCESS</xmpG:type>
                           <xmpG:red>96</xmpG:red>
                           <xmpG:green>56</xmpG:green>
                           <xmpG:blue>19</xmpG:blue>
                        </rdf:li>
                        <rdf:li rdf:parseType="Resource">
                           <xmpG:swatchName>R=66 G=33 B=11</xmpG:swatchName>
                           <xmpG:mode>RGB</xmpG:mode>
                           <xmpG:type>PROCESS</xmpG:type>
                           <xmpG:red>66</xmpG:red>
                           <xmpG:green>33</xmpG:green>
                           <xmpG:blue>11</xmpG:blue>
                        </rdf:li>
                     </rdf:Seq>
                  </xmpG:Colorants>
               </rdf:li>
               <rdf:li rdf:parseType="Resource">
                  <xmpG:groupName>灰階</xmpG:groupName>
                  <xmpG:groupType>1</xmpG:groupType>
                  <xmpG:Colorants>
                     <rdf:Seq>
                        <rdf:li rdf:parseType="Resource">
                           <xmpG:swatchName>R=0 G=0 B=0</xmpG:swatchName>
                           <xmpG:mode>RGB</xmpG:mode>
                           <xmpG:type>PROCESS</xmpG:type>
                           <xmpG:red>0</xmpG:red>
                           <xmpG:green>0</xmpG:green>
                           <xmpG:blue>0</xmpG:blue>
                        </rdf:li>
                        <rdf:li rdf:parseType="Resource">
                           <xmpG:swatchName>R=26 G=26 B=26</xmpG:swatchName>
                           <xmpG:mode>RGB</xmpG:mode>
                           <xmpG:type>PROCESS</xmpG:type>
                           <xmpG:red>26</xmpG:red>
                           <xmpG:green>26</xmpG:green>
                           <xmpG:blue>26</xmpG:blue>
                        </rdf:li>
                        <rdf:li rdf:parseType="Resource">
                           <xmpG:swatchName>R=51 G=51 B=51</xmpG:swatchName>
                           <xmpG:mode>RGB</xmpG:mode>
                           <xmpG:type>PROCESS</xmpG:type>
                           <xmpG:red>51</xmpG:red>
                           <xmpG:green>51</xmpG:green>
                           <xmpG:blue>51</xmpG:blue>
                        </rdf:li>
                        <rdf:li rdf:parseType="Resource">
                           <xmpG:swatchName>R=77 G=77 B=77</xmpG:swatchName>
                           <xmpG:mode>RGB</xmpG:mode>
                           <xmpG:type>PROCESS</xmpG:type>
                           <xmpG:red>77</xmpG:red>
                           <xmpG:green>77</xmpG:green>
                           <xmpG:blue>77</xmpG:blue>
                        </rdf:li>
                        <rdf:li rdf:parseType="Resource">
                           <xmpG:swatchName>R=102 G=102 B=102</xmpG:swatchName>
                           <xmpG:mode>RGB</xmpG:mode>
                           <xmpG:type>PROCESS</xmpG:type>
                           <xmpG:red>102</xmpG:red>
                           <xmpG:green>102</xmpG:green>
                           <xmpG:blue>102</xmpG:blue>
                        </rdf:li>
                        <rdf:li rdf:parseType="Resource">
                           <xmpG:swatchName>R=128 G=128 B=128</xmpG:swatchName>
                           <xmpG:mode>RGB</xmpG:mode>
                           <xmpG:type>PROCESS</xmpG:type>
                           <xmpG:red>128</xmpG:red>
                           <xmpG:green>128</xmpG:green>
                           <xmpG:blue>128</xmpG:blue>
                        </rdf:li>
                        <rdf:li rdf:parseType="Resource">
                           <xmpG:swatchName>R=153 G=153 B=153</xmpG:swatchName>
                           <xmpG:mode>RGB</xmpG:mode>
                           <xmpG:type>PROCESS</xmpG:type>
                           <xmpG:red>153</xmpG:red>
                           <xmpG:green>153</xmpG:green>
                           <xmpG:blue>153</xmpG:blue>
                        </rdf:li>
                        <rdf:li rdf:parseType="Resource">
                           <xmpG:swatchName>R=179 G=179 B=179</xmpG:swatchName>
                           <xmpG:mode>RGB</xmpG:mode>
                           <xmpG:type>PROCESS</xmpG:type>
                           <xmpG:red>179</xmpG:red>
                           <xmpG:green>179</xmpG:green>
                           <xmpG:blue>179</xmpG:blue>
                        </rdf:li>
                        <rdf:li rdf:parseType="Resource">
                           <xmpG:swatchName>R=204 G=204 B=204</xmpG:swatchName>
                           <xmpG:mode>RGB</xmpG:mode>
                           <xmpG:type>PROCESS</xmpG:type>
                           <xmpG:red>204</xmpG:red>
                           <xmpG:green>204</xmpG:green>
                           <xmpG:blue>204</xmpG:blue>
                        </rdf:li>
                        <rdf:li rdf:parseType="Resource">
                           <xmpG:swatchName>R=230 G=230 B=230</xmpG:swatchName>
                           <xmpG:mode>RGB</xmpG:mode>
                           <xmpG:type>PROCESS</xmpG:type>
                           <xmpG:red>230</xmpG:red>
                           <xmpG:green>230</xmpG:green>
                           <xmpG:blue>230</xmpG:blue>
                        </rdf:li>
                        <rdf:li rdf:parseType="Resource">
                           <xmpG:swatchName>R=242 G=242 B=242</xmpG:swatchName>
                           <xmpG:mode>RGB</xmpG:mode>
                           <xmpG:type>PROCESS</xmpG:type>
                           <xmpG:red>242</xmpG:red>
                           <xmpG:green>242</xmpG:green>
                           <xmpG:blue>242</xmpG:blue>
                        </rdf:li>
                     </rdf:Seq>
                  </xmpG:Colorants>
               </rdf:li>
               <rdf:li rdf:parseType="Resource">
                  <xmpG:groupName>網頁顏色群組</xmpG:groupName>
                  <xmpG:groupType>1</xmpG:groupType>
                  <xmpG:Colorants>
                     <rdf:Seq>
                        <rdf:li rdf:parseType="Resource">
                           <xmpG:swatchName>R=63 G=169 B=245</xmpG:swatchName>
                           <xmpG:mode>RGB</xmpG:mode>
                           <xmpG:type>PROCESS</xmpG:type>
                           <xmpG:red>63</xmpG:red>
                           <xmpG:green>169</xmpG:green>
                           <xmpG:blue>245</xmpG:blue>
                        </rdf:li>
                        <rdf:li rdf:parseType="Resource">
                           <xmpG:swatchName>R=122 G=201 B=67</xmpG:swatchName>
                           <xmpG:mode>RGB</xmpG:mode>
                           <xmpG:type>PROCESS</xmpG:type>
                           <xmpG:red>122</xmpG:red>
                           <xmpG:green>201</xmpG:green>
                           <xmpG:blue>67</xmpG:blue>
                        </rdf:li>
                        <rdf:li rdf:parseType="Resource">
                           <xmpG:swatchName>R=255 G=147 B=30</xmpG:swatchName>
                           <xmpG:mode>RGB</xmpG:mode>
                           <xmpG:type>PROCESS</xmpG:type>
                           <xmpG:red>255</xmpG:red>
                           <xmpG:green>147</xmpG:green>
                           <xmpG:blue>30</xmpG:blue>
                        </rdf:li>
                        <rdf:li rdf:parseType="Resource">
                           <xmpG:swatchName>R=255 G=29 B=37</xmpG:swatchName>
                           <xmpG:mode>RGB</xmpG:mode>
                           <xmpG:type>PROCESS</xmpG:type>
                           <xmpG:red>255</xmpG:red>
                           <xmpG:green>29</xmpG:green>
                           <xmpG:blue>37</xmpG:blue>
                        </rdf:li>
                        <rdf:li rdf:parseType="Resource">
                           <xmpG:swatchName>R=255 G=123 B=172</xmpG:swatchName>
                           <xmpG:mode>RGB</xmpG:mode>
                           <xmpG:type>PROCESS</xmpG:type>
                           <xmpG:red>255</xmpG:red>
                           <xmpG:green>123</xmpG:green>
                           <xmpG:blue>172</xmpG:blue>
                        </rdf:li>
                        <rdf:li rdf:parseType="Resource">
                           <xmpG:swatchName>R=189 G=204 B=212</xmpG:swatchName>
                           <xmpG:mode>RGB</xmpG:mode>
                           <xmpG:type>PROCESS</xmpG:type>
                           <xmpG:red>189</xmpG:red>
                           <xmpG:green>204</xmpG:green>
                           <xmpG:blue>212</xmpG:blue>
                        </rdf:li>
                     </rdf:Seq>
                  </xmpG:Colorants>
               </rdf:li>
            </rdf:Seq>
         </xmpTPg:SwatchGroups>
         <pdf:Producer>Adobe PDF library 18.00</pdf:Producer>
         <pdfx:CreatorVersion>21.0.0</pdfx:CreatorVersion>
      </rdf:Description>
   </rdf:RDF>
</x:xmpmeta>
                                                                                                    
                                                                                                    
                                                                                                    
                                                                                                    
                                                                                                    
                                                                                                    
                                                                                                    
                                                                                                    
                                                                                                    
                                                                                                    
                                                                                                    
                                                                                                    
                                                                                                    
                                                                                                    
                                                                                                    
                                                                                                    
                                                                                                    
                                                                                                    
                                                                                                    
                                                                                                    
                           
<?xpacket end="w"?>
  </metadata>
</svg>