<?xml version="1.0" encoding="UTF-8"?>
<svg id="_圖層_1" data-name="圖層_1" xmlns="http://www.w3.org/2000/svg" version="1.1" viewBox="0 0 60 60">
  <!-- Generator: Adobe Illustrator 30.2.1, SVG Export Plug-In . SVG Version: 2.1.1 Build 1)  -->
  <g>
    <g>
      <path d="M46.221,25.572c.046-.388.196-.763.46-1.075.61-.72,1.591-1.027,2.533-1.07,1.616-.074,3.251.56,4.396,1.703,0,0,.047.047.094.094.291.393.587.793.587.793,1.732,2.34-1.092,7.531-7.311,1.172-.563,1.152-2.357,1.287-3.052.166,1.406-3.09,3.582-5.813,6.257-7.895,1.132-.881,2.807-1.634,3.899-.704.801.682.787,1.985.258,2.894-.53.909-1.442,1.517-2.323,2.092,0,0-.572.374-1.144.748,1.36,2.514,2.719,5.028,2.719,5.028.588,1.087.298,2.514-.512,3.448-.81.934-2.049,1.416-3.28,1.526-1.253.112-2.511-.124-3.733-.417-2.584,1.698-5.475,2.927-8.491,3.61l-1.083-2.762c2.55-.761,4.784-2.54,6.082-4.866-1.014-.872-1.523-2.315-1.24-3.628.315-1.46,1.591-2.663,3.067-2.893,1.467-.228,3.35.647,2.056,3.352-.208-.405-.294-.87-.24-1.317Z" fill="#fff"/>
      <path d="M46.947,27.838c2.058-1.135,4.91-.589,6.431,1.194-1.372,1.089-3.052,1.755-4.785,1.945-.674.074-1.389.068-1.988-.249-.599-.317-1.036-1.025-.85-1.677.12-.42.463-.738.823-.985.12-.082.242-.158.368-.227Z" fill="#fff"/>
    </g>
    <g>
      <path d="M52.29,24.159c.965-.631,2.027-1.329,2.553-2.397.439-.89.509-2.054-.1-2.886-.675-.922-1.857-1.036-2.877-.698-1.151.382-2.103,1.18-2.994,1.975-1.091.973-2.07,2.058-2.948,3.226-.313.416.389.819.698.408.657-.874,1.385-1.695,2.17-2.456.743-.72,1.536-1.457,2.436-1.978.718-.416,1.746-.831,2.523-.326.713.463.742,1.449.463,2.172-.399,1.03-1.45,1.685-2.331,2.262-.434.284-.029.984.408.698h0Z"/>
      <path d="M54.359,29.913c.806-.817,1.104-2.059.775-3.159-.148-.493-.43-.88-.731-1.286-.385-.52-.812-.938-1.351-1.303-1.079-.732-2.412-1.123-3.716-1.076-1.183.043-2.52.479-3.142,1.566-.624,1.092-.31,2.563.673,3.333.405.317.981-.251.572-.572-.666-.522-.974-1.443-.608-2.236.414-.899,1.54-1.239,2.452-1.281,1.966-.091,3.941.921,4.901,2.66.49.888.311,2.066-.396,2.782-.366.371.205.943.572.572h0Z"/>
      <path d="M54.184,29.428c-1.104-1.732-3.208-2.674-5.239-2.499-1.021.088-2.036.439-2.829,1.102-.448.375-.782.908-.735,1.511.045.581.378,1.103.842,1.445,1.211.894,3.094.463,4.406.054.495-.154.284-.935-.215-.78-1.002.312-2.296.65-3.326.279-.423-.152-.814-.506-.893-.966-.082-.477.297-.842.655-1.091,1.321-.918,3.106-.976,4.565-.363.842.354,1.579.944,2.071,1.716.279.437.979.032.698-.408h0Z"/>
      <path d="M46.405,27.446c-.462.398-1.139.45-1.667.156-.455-.253-.863.445-.408.698.862.479,1.903.356,2.646-.283.395-.34-.179-.909-.572-.572h0Z"/>
      <path d="M47.073,24.226c-1.225-1.892-4.036-.977-5.212.462-1.402,1.717-1.159,4.258.498,5.724-.021-.163-.042-.327-.063-.49-1.267,2.242-3.377,3.931-5.84,4.68-.193.059-.364.289-.282.497.361.921.722,1.841,1.083,2.762.082.21.265.335.497.282,3.051-.698,5.968-1.938,8.588-3.651-.104.014-.208.027-.311.041,2.086.496,4.423.819,6.358-.345,1.618-.974,2.533-3.038,1.623-4.805-.238-.463-.936-.054-.698.408.519,1.008.201,2.275-.555,3.075-.839.888-2.081,1.274-3.276,1.314-.746.025-1.487-.062-2.218-.203-.337-.065-.679-.181-1.019-.223-.325-.04-.599.229-.863.393-1.127.7-2.31,1.317-3.533,1.834-1.392.588-2.838,1.046-4.311,1.383.166.094.331.188.497.282-.361-.921-.722-1.841-1.083-2.762-.094.166-.188.331-.282.497,2.66-.809,4.955-2.629,6.324-5.052.084-.148.071-.371-.063-.49-1.292-1.144-1.605-3.102-.551-4.512.469-.627,1.157-1.093,1.919-1.278.711-.172,1.643-.084,2.076.584.282.435.982.03.698-.408h0Z"/>
    </g>
  </g>
  <g>
    <g>
      <path d="M7.956,38.746c1.009.137,2.091.263,2.997-.201.906-.463,1.442-1.771.766-2.532-.257-.29-.633-.445-1.006-.548-1.76-.482-5.579.013-5.576,2.478,0,.811.491,1.569,1.152,2.04.66.471,1.471.688,2.277.783,1.313.155,2.661.009,3.91-.426.521-.181,1.048-.435,1.447-.805,1.715,1.225,3.647,2.356,5.687,2.01,2.254-.383,3.791-2.425,5.088-4.308l-.661-1.895c-.67.518-1.151,1.239-1.752,1.836-.602.597-1.418,1.088-2.254.949-.755-.126-1.329-.726-1.843-1.294-.368-.406-.737-.812-1.105-1.219.705-2.398-.593-5.276-3.069-6.085-1.149-.103-2.376-.011-3.139.815-.248.268-.408.598-.486.95.147-.156.165-.408.084-.608-.086-.21-.261-.371-.45-.496-.824-.546-1.928-.505-2.85-.146-.667.26-1.295.697-1.624,1.333-.33.636-.295,1.488.207,1.999" fill="#fff"/>
      <path d="M5.611,36.405c-.673-.755-.547-2.01.111-2.778.658-.769,1.715-1.1,2.727-1.104.767-.003,1.591.196,2.088.781s.475,1.625-.189,2.01" fill="#fff"/>
    </g>
    <g>
      <path d="M14.256,33.005c-1.089,1.193-3.231.83-3.497-.879-.124-.794.236-1.537.949-1.911.383-.201.826-.281,1.255-.306.449-.026.898-.035,1.313.152,1.409.637,2.349,2.059,2.555,3.573.05.369.054.749.016,1.119-.037.363-.287.831-.049,1.148.334.445.765.846,1.14,1.257.308.338.628.664,1.003.93.92.652,2.033.556,2.945-.061.959-.649,1.539-1.684,2.438-2.4-.225-.059-.45-.119-.676-.178.22.632.441,1.263.661,1.895.014-.104.027-.208.041-.311-1.056,1.53-2.288,3.302-4.126,3.937-2.21.764-4.35-.542-6.096-1.784-.151-.107-.364-.049-.49.063-.694.62-1.69.885-2.586,1.047-.927.167-1.909.182-2.837.012-.852-.156-1.728-.488-2.26-1.209-.379-.514-.54-1.193-.294-1.8.392-.967,1.599-1.346,2.532-1.506.536-.092,1.089-.111,1.631-.069.532.041,1.256.139,1.612.575.451.553.028,1.398-.466,1.765-.799.593-1.99.416-2.904.292-.218-.029-.431.052-.497.282-.054.188.066.468.282.497,1.069.144,2.196.281,3.208-.192.773-.362,1.338-1.18,1.371-2.038.069-1.802-2.196-2.075-3.543-1.998-1.328.077-2.882.462-3.701,1.601-.439.61-.557,1.417-.348,2.137.291,1,1.113,1.73,2.051,2.119,1.17.484,2.537.552,3.782.4,1.24-.151,2.587-.493,3.54-1.344-.163.021-.327.042-.49.063,2.069,1.473,4.591,2.81,7.135,1.702,1.042-.454,1.91-1.237,2.646-2.089.394-.456.758-.939,1.109-1.429.227-.317.572-.638.442-1.046-.192-.6-.416-1.192-.623-1.787-.107-.307-.432-.372-.676-.178-1.037.825-1.765,2.431-3.182,2.67-.662.112-1.211-.277-1.66-.718-.541-.532-1.032-1.118-1.541-1.68.035.131.069.262.104.393.721-2.543-.57-5.466-3.052-6.472-.652-.264-1.5-.194-2.179-.062-.712.139-1.39.493-1.827,1.083-.773,1.045-.597,2.666.349,3.548,1.135,1.058,3.042.876,4.064-.245.35-.384-.22-.957-.572-.572h0Z"/>
      <path d="M5.896,36.119c-.477-.567-.395-1.422-.022-2.02.418-.67,1.219-1.012,1.972-1.129.716-.111,1.608-.067,2.194.41.444.361.673,1.222.103,1.585-.438.279-.033.979.408.698.644-.41.86-1.202.659-1.92-.231-.827-.996-1.339-1.8-1.521-1.604-.364-3.708.194-4.411,1.812-.386.888-.306,1.905.325,2.656.335.399.905-.176.572-.572h0Z"/>
      <path d="M6.04,33.09c-.348-.38-.382-.962-.185-1.425.228-.535.727-.907,1.237-1.15.523-.249,1.12-.372,1.698-.325.292.024.587.102.845.24.148.079.64.373.445.6-.338.393.232.967.572.572.705-.819-.11-1.68-.893-2.001-.851-.349-1.85-.275-2.696.053-.816.317-1.59.861-1.944,1.689-.332.778-.23,1.687.348,2.318.352.385.923-.188.572-.572h0Z"/>
    </g>
  </g>
  <metadata><?xpacket begin="﻿" id="W5M0MpCehiHzreSzNTczkc9d"?>
<x:xmpmeta xmlns:x="adobe:ns:meta/" x:xmptk="Adobe XMP Core 10.0-c000 1.000000, 0000/00/00-00:00:00        ">
   <rdf:RDF xmlns:rdf="http://www.w3.org/1999/02/22-rdf-syntax-ns#">
      <rdf:Description rdf:about=""
            xmlns:dc="http://purl.org/dc/elements/1.1/"
            xmlns:xmp="http://ns.adobe.com/xap/1.0/"
            xmlns:xmpGImg="http://ns.adobe.com/xap/1.0/g/img/"
            xmlns:xmpMM="http://ns.adobe.com/xap/1.0/mm/"
            xmlns:stRef="http://ns.adobe.com/xap/1.0/sType/ResourceRef#"
            xmlns:stEvt="http://ns.adobe.com/xap/1.0/sType/ResourceEvent#"
            xmlns:illustrator="http://ns.adobe.com/illustrator/1.0/"
            xmlns:xmpTPg="http://ns.adobe.com/xap/1.0/t/pg/"
            xmlns:stDim="http://ns.adobe.com/xap/1.0/sType/Dimensions#"
            xmlns:xmpG="http://ns.adobe.com/xap/1.0/g/"
            xmlns:pdf="http://ns.adobe.com/pdf/1.3/"
            xmlns:pdfx="http://ns.adobe.com/pdfx/1.3/">
         <dc:format>image/svg+xml</dc:format>
         <dc:title>
            <rdf:Alt>
               <rdf:li xml:lang="x-default">2F互動裝置動畫素材</rdf:li>
            </rdf:Alt>
         </dc:title>
         <xmp:CreatorTool>Adobe Illustrator 30.2 (Macintosh)</xmp:CreatorTool>
         <xmp:CreateDate>2026-06-15T01:08:52+08:00</xmp:CreateDate>
         <xmp:ModifyDate>2026-06-15T01:08:52+08:00</xmp:ModifyDate>
         <xmp:MetadataDate>2026-06-15T01:08:52+08:00</xmp:MetadataDate>
         <xmp:Thumbnails>
            <rdf:Alt>
               <rdf:li rdf:parseType="Resource">
                  <xmpGImg:width>256</xmpGImg:width>
                  <xmpGImg:height>28</xmpGImg:height>
                  <xmpGImg:format>JPEG</xmpGImg:format>
                  <xmpGImg:image>/9j/4AAQSkZJRgABAgEAAAAAAAD/7QAsUGhvdG9zaG9wIDMuMAA4QklNA+0AAAAAABAAAAAAAAEA&#xA;AQAAAAAAAQAB/+4ADkFkb2JlAGTAAAAAAf/bAIQABgQEBAUEBgUFBgkGBQYJCwgGBggLDAoKCwoK&#xA;DBAMDAwMDAwQDA4PEA8ODBMTFBQTExwbGxscHx8fHx8fHx8fHwEHBwcNDA0YEBAYGhURFRofHx8f&#xA;Hx8fHx8fHx8fHx8fHx8fHx8fHx8fHx8fHx8fHx8fHx8fHx8fHx8fHx8fHx8f/8AAEQgAHAEAAwER&#xA;AAIRAQMRAf/EAaIAAAAHAQEBAQEAAAAAAAAAAAQFAwIGAQAHCAkKCwEAAgIDAQEBAQEAAAAAAAAA&#xA;AQACAwQFBgcICQoLEAACAQMDAgQCBgcDBAIGAnMBAgMRBAAFIRIxQVEGE2EicYEUMpGhBxWxQiPB&#xA;UtHhMxZi8CRygvElQzRTkqKyY3PCNUQnk6OzNhdUZHTD0uIIJoMJChgZhJRFRqS0VtNVKBry4/PE&#xA;1OT0ZXWFlaW1xdXl9WZ2hpamtsbW5vY3R1dnd4eXp7fH1+f3OEhYaHiImKi4yNjo+Ck5SVlpeYmZ&#xA;qbnJ2en5KjpKWmp6ipqqusra6voRAAICAQIDBQUEBQYECAMDbQEAAhEDBCESMUEFURNhIgZxgZEy&#xA;obHwFMHR4SNCFVJicvEzJDRDghaSUyWiY7LCB3PSNeJEgxdUkwgJChgZJjZFGidkdFU38qOzwygp&#xA;0+PzhJSktMTU5PRldYWVpbXF1eX1RlZmdoaWprbG1ub2R1dnd4eXp7fH1+f3OEhYaHiImKi4yNjo&#xA;+DlJWWl5iZmpucnZ6fkqOkpaanqKmqq6ytrq+v/aAAwDAQACEQMRAD8AgeveaZvNH51y/V9YmvUu&#xA;/MWmxW99YSSWgWCOR7L1bbgZok/dvGBMzA13AKscVfSa/mZ5g1qTTb3y8LKCx1W61Cw0JLw3Eiag&#xA;9sWCXDmG3Jt4x9Xcr8ZqpqR0oqtsvzzjfzL5b8sTaNcSajrcds016tIbVTNFK7vCJCzSKrQ7UO45&#xA;b1WjKvL7385vOOpedbnV57zUdJ8q6ReWca21kisyWOrWzrDdyMYJbeQMzwyokqu/++wKOcVfUmKu&#xA;xV2KuxV2KuxV2KuxV2KuxV2KuxV2KuxV2KuxV2KuxV2KuxV2KuxV2KuxV2KuxV2KuxV41rP/ADjd&#xA;pWofmgPOqajHFas8cl1pEtot0k6hRFNA5lkMQheBSgURbcq9lxVmj/lJ5Ga40hlsfTstCcS6ZpKM&#xA;RYxSB5ZDILb7HNpJ+RbrVV7VBVYdqP8Azj2TfXt7o+twWN1eTyzi4uNOW4mi5q6xLDLHPbNH6Hqs&#xA;U4U3pUUVAqrLYvyd/LwpK17ottdXd1YwadeTsJArRW8Atk9JGdxCVjHFWQhgP2sVZoihVCitFAAq&#xA;STt4k1JxVvFXYq7FXYq7FXYq7FXYq7FXYq7FXYq7FXYq7FXYq7FXYq7FXYq7FXYq7FXYq7FXYq7F&#xA;Uj0Pzt5W13U9Q0vSr9bnUNKYpqFuFkVomWWSAhuar0kgddvDwIxVevm/QW14aD6sq6kzFFR7a4SM&#xA;sI2los7RiFqojlaPvxam6tRVWuPM/l+31iLRZ7+GPVp+Ahsmakr+osroVXuCtvJv/k4q3qvmTRNJ&#xA;vLCy1C6WC61ST0bCIhiZZAVWg4g03kXr44qiL/VLCwEZvJhCJTxjLA0LVAC1A+0zMFUdWJoN8Vbm&#xA;1Owh0x9UmnWPT44TdSXLGiLCqczISegC74qo6tr2kaTo82tahdJDpdvGJpbvd0EZpRvgDEg17Yqs&#xA;0DzLoXmG0lvNFvEvrWCeS1kmirxEsRAdQSBWleo2xVW0vWdK1aCSfTbqO7hilkt5XiYMFliPF0NO&#xA;hU4qt07XdJ1K6vrWxuVuJ9NlEF8qAkRSkcvTZqceQG5ANRUV6jFVRNV0t759PS8ga/jFXtBIhmUU&#xA;rUx15DY16YqlN35/8m2nmNPLdzq0EWuSNEi2JLc+U4LRKTTiC4Xap8PEYqnc11awNEs8yRNO3pwq&#xA;7BS7kV4rU7nboMVQWveY9F0C0S81e5FrbO/prKUdxz4M9PgVuqoaeJ26kYqibnUtPtLB9QurmK3s&#xA;I09WS6lcRxqlK8mdiAB88Vbh1CymsI9QSZfqUsSzpcMeKGNl5BqtSgoa74q1Yanp2o2q3en3UN5a&#xA;vuk9u6yodgdmQsDscVW6VqdrqdjHeW3NUkHxRSqY5Y3GzRyI26Oh2ZT0ONqQtsta0m+urq0s7uKe&#xA;5sWCXcUbAtGxrQN9xHzBHUY0qjb+YbKfzBdaGkcourSJZpJCo9Iq3HZWrWvxjtkBMXSa2V59X0+C&#xA;+isZZStzNT014uVNTQDmBwBPgTkDnhx8F+ruYk0t1DXNH06e2t768it7i8bhaQOwEkrclWkafaah&#xA;da0G3U7Zcldqus6XpMEc+o3C20U0qW8bvWhlkNEXavXFVW7vrKzWNru4it1mkWGIyuqB5H2VF5EV&#xA;ZuwG+KoWDzHoE+iDXY9Qt/0MUMn6RaRUt+CkqXMjEKFqOtcVRFtqWn3UU01vcRyxW8kkNw6sKRyQ&#xA;sVkR/wCUqRvXFVHSde0jV1mbTblbkQMEm41HEkVHUDYjcHuN8VU9O8zeX9TuEt9Ov4byWSA3Segw&#xA;kUwrKYS/Jar/AHiMvXqD4HFV1t5j0K51B9OhvoXv45JYWteYEnqQLG8qhTuSizITTswxVfPrmkwa&#xA;lDpkt0g1C43ithUuRRiCQK8QQjUr4HwxVrVde0jSomkv7lYuPpkxgF5KSyrAhEaBnIMkirUDFVXU&#xA;dW0zTY45dQuo7WOaRYImlYLyketFWvU0BPyBPQHFUFo3+Ev0hqX6F+ofpHmP0v8AU/R9f1PUlp9Z&#xA;9L4+Xqer9v8Aa5d64qhrf/AH+JW+r/or/E/OXn6f1b6/z9OP1q0/fV9P0+f+TxrtTFUxuv0B+kIP&#xA;rf1X9I1H1X1fT9eu9PT5fH49MVRM/wBT9SD6x6fqep/ovqca+rwb+7r+1w5dN6VxVCa3/h76un6c&#xA;+qfVqv6f130uFfSfnT1dq+lzr/k17VxVHSej6Lepx9HiefKnHjTetdqUxVSvv0f9Rl+vej9R4/vv&#xA;X4+lw/yuXw0+eKrNN/RPCb9G+hw9Z/rH1bhT19ufPh+3/NXfFVe3+r+n/o/D0+Tf3dOPLkefTvyr&#xA;X3xVbb/UvUuPq/p+p6n+l+nx5erwX+8p+16fDrvxp2piqtiqRXn+Bv8AEEP1z9Gf4i5x/V/W+r/X&#xA;efB/T4cv3vLhz407Vp3xVPcVSzXv8NfVk/T/ANS+q1fh9f8AS9Ovpt6lPV2/uufL/Jr2xVGSfUfq&#xA;Lep6X1D0jz5cfR9HjvWvw8OP0UxVXFKCnTtTpTFXYqoQfUfrNz6Hp/WOS/W+FOXPgOPOnfhx69qY&#xA;EoHSv8LfXLn9E/Ufrv8Ax+fVPR9Xr/u30/i+1/Nkt0K0X6D/AE3cel6H6Z9FPrHHj63o1PHl3pX+&#xA;HtkdrSil+q/Wn48PrXBfUpT1PTq3CvfjXlT6cdr82O1tSfUvrcPqen9b4v8AV+XH1OPw+pwr8VPs&#xA;8qe2FK2+/R3pJ9f9H0ua+n6/Hj6n7NOe3LwxV17+j/TT696Xp+onpevx4+ryHp8eX7fKnHvXpiq+&#xA;b6p9X/fen9Wov2+PClRx67daUxVUfhwbnThQ8q9Kd61xVSs/qX1dfqXp/V6Dh6PHhSgpTjt0piq6&#xA;H6t8XocOrc+FPtc25Vp358q+9cVaH1X19vT9eu/TnXiPp+zT6MVU1/Rv6Sbj6P6S9Ic6cPX9HkeN&#xA;f2+HKtO1cVcf0Z+k1r6P6U9FuFeHr+hzHKn7fp86V7VxVbqn6I+qn9K/V/qlTX61w9OvE1/vPh+z&#xA;X6MVf//Z</xmpGImg:image>
               </rdf:li>
            </rdf:Alt>
         </xmp:Thumbnails>
         <xmpMM:RenditionClass>default</xmpMM:RenditionClass>
         <xmpMM:OriginalDocumentID>uuid:65E6390686CF11DBA6E2D887CEACB407</xmpMM:OriginalDocumentID>
         <xmpMM:DocumentID>xmp.did:e937bd8a-96ef-4956-b586-ad08c765cce5</xmpMM:DocumentID>
         <xmpMM:InstanceID>xmp.iid:e937bd8a-96ef-4956-b586-ad08c765cce5</xmpMM:InstanceID>
         <xmpMM:DerivedFrom rdf:parseType="Resource">
            <stRef:instanceID>xmp.iid:7908d139-fa91-43d2-9033-6fff652efb4f</stRef:instanceID>
            <stRef:documentID>xmp.did:7908d139-fa91-43d2-9033-6fff652efb4f</stRef:documentID>
            <stRef:originalDocumentID>uuid:65E6390686CF11DBA6E2D887CEACB407</stRef:originalDocumentID>
            <stRef:renditionClass>default</stRef:renditionClass>
         </xmpMM:DerivedFrom>
         <xmpMM:History>
            <rdf:Seq>
               <rdf:li rdf:parseType="Resource">
                  <stEvt:action>saved</stEvt:action>
                  <stEvt:instanceID>xmp.iid:b161945e-395f-874b-9efa-5cf437b90c72</stEvt:instanceID>
                  <stEvt:when>2026-06-02T15:41:12+08:00</stEvt:when>
                  <stEvt:softwareAgent>Adobe Illustrator 29.7 (Windows)</stEvt:softwareAgent>
                  <stEvt:changed>/</stEvt:changed>
               </rdf:li>
               <rdf:li rdf:parseType="Resource">
                  <stEvt:action>saved</stEvt:action>
                  <stEvt:instanceID>xmp.iid:e937bd8a-96ef-4956-b586-ad08c765cce5</stEvt:instanceID>
                  <stEvt:when>2026-06-15T01:08:52+08:00</stEvt:when>
                  <stEvt:softwareAgent>Adobe Illustrator 30.2 (Macintosh)</stEvt:softwareAgent>
                  <stEvt:changed>/</stEvt:changed>
               </rdf:li>
            </rdf:Seq>
         </xmpMM:History>
         <illustrator:StartupProfile>Web</illustrator:StartupProfile>
         <illustrator:CreatorSubTool>Adobe Illustrator</illustrator:CreatorSubTool>
         <illustrator:IsFileSavedViaInstantSave>False</illustrator:IsFileSavedViaInstantSave>
         <xmpTPg:NPages>1</xmpTPg:NPages>
         <xmpTPg:HasVisibleTransparency>False</xmpTPg:HasVisibleTransparency>
         <xmpTPg:HasVisibleOverprint>False</xmpTPg:HasVisibleOverprint>
         <xmpTPg:MaxPageSize rdf:parseType="Resource">
            <stDim:w>428.543427</stDim:w>
            <stDim:h>160.450703</stDim:h>
            <stDim:unit>Pixels</stDim:unit>
         </xmpTPg:MaxPageSize>
         <xmpTPg:PlateNames>
            <rdf:Seq>
               <rdf:li>Cyan</rdf:li>
               <rdf:li>Magenta</rdf:li>
               <rdf:li>Yellow</rdf:li>
               <rdf:li>Black</rdf:li>
            </rdf:Seq>
         </xmpTPg:PlateNames>
         <xmpTPg:SwatchGroups>
            <rdf:Seq>
               <rdf:li rdf:parseType="Resource">
                  <xmpG:groupName>預設色票群組</xmpG:groupName>
                  <xmpG:groupType>0</xmpG:groupType>
                  <xmpG:Colorants>
                     <rdf:Seq>
                        <rdf:li rdf:parseType="Resource">
                           <xmpG:swatchName>白色</xmpG:swatchName>
                           <xmpG:mode>RGB</xmpG:mode>
                           <xmpG:type>PROCESS</xmpG:type>
                           <xmpG:red>255</xmpG:red>
                           <xmpG:green>255</xmpG:green>
                           <xmpG:blue>255</xmpG:blue>
                        </rdf:li>
                        <rdf:li rdf:parseType="Resource">
                           <xmpG:swatchName>黑色</xmpG:swatchName>
                           <xmpG:mode>RGB</xmpG:mode>
                           <xmpG:type>PROCESS</xmpG:type>
                           <xmpG:red>0</xmpG:red>
                           <xmpG:green>0</xmpG:green>
                           <xmpG:blue>0</xmpG:blue>
                        </rdf:li>
                        <rdf:li rdf:parseType="Resource">
                           <xmpG:swatchName>RGB 紅色</xmpG:swatchName>
                           <xmpG:mode>RGB</xmpG:mode>
                           <xmpG:type>PROCESS</xmpG:type>
                           <xmpG:red>255</xmpG:red>
                           <xmpG:green>0</xmpG:green>
                           <xmpG:blue>0</xmpG:blue>
                        </rdf:li>
                        <rdf:li rdf:parseType="Resource">
                           <xmpG:swatchName>RGB 黃色</xmpG:swatchName>
                           <xmpG:mode>RGB</xmpG:mode>
                           <xmpG:type>PROCESS</xmpG:type>
                           <xmpG:red>255</xmpG:red>
                           <xmpG:green>255</xmpG:green>
                           <xmpG:blue>0</xmpG:blue>
                        </rdf:li>
                        <rdf:li rdf:parseType="Resource">
                           <xmpG:swatchName>RGB 綠色</xmpG:swatchName>
                           <xmpG:mode>RGB</xmpG:mode>
                           <xmpG:type>PROCESS</xmpG:type>
                           <xmpG:red>0</xmpG:red>
                           <xmpG:green>255</xmpG:green>
                           <xmpG:blue>0</xmpG:blue>
                        </rdf:li>
                        <rdf:li rdf:parseType="Resource">
                           <xmpG:swatchName>RGB 青色</xmpG:swatchName>
                           <xmpG:mode>RGB</xmpG:mode>
                           <xmpG:type>PROCESS</xmpG:type>
                           <xmpG:red>0</xmpG:red>
                           <xmpG:green>255</xmpG:green>
                           <xmpG:blue>255</xmpG:blue>
                        </rdf:li>
                        <rdf:li rdf:parseType="Resource">
                           <xmpG:swatchName>RGB 藍色</xmpG:swatchName>
                           <xmpG:mode>RGB</xmpG:mode>
                           <xmpG:type>PROCESS</xmpG:type>
                           <xmpG:red>0</xmpG:red>
                           <xmpG:green>0</xmpG:green>
                           <xmpG:blue>255</xmpG:blue>
                        </rdf:li>
                        <rdf:li rdf:parseType="Resource">
                           <xmpG:swatchName>RGB 洋紅色</xmpG:swatchName>
                           <xmpG:mode>RGB</xmpG:mode>
                           <xmpG:type>PROCESS</xmpG:type>
                           <xmpG:red>255</xmpG:red>
                           <xmpG:green>0</xmpG:green>
                           <xmpG:blue>255</xmpG:blue>
                        </rdf:li>
                        <rdf:li rdf:parseType="Resource">
                           <xmpG:swatchName>R=193 G=39 B=45</xmpG:swatchName>
                           <xmpG:mode>RGB</xmpG:mode>
                           <xmpG:type>PROCESS</xmpG:type>
                           <xmpG:red>193</xmpG:red>
                           <xmpG:green>39</xmpG:green>
                           <xmpG:blue>45</xmpG:blue>
                        </rdf:li>
                        <rdf:li rdf:parseType="Resource">
                           <xmpG:swatchName>R=237 G=28 B=36</xmpG:swatchName>
                           <xmpG:mode>RGB</xmpG:mode>
                           <xmpG:type>PROCESS</xmpG:type>
                           <xmpG:red>237</xmpG:red>
                           <xmpG:green>28</xmpG:green>
                           <xmpG:blue>36</xmpG:blue>
                        </rdf:li>
                        <rdf:li rdf:parseType="Resource">
                           <xmpG:swatchName>R=241 G=90 B=36</xmpG:swatchName>
                           <xmpG:mode>RGB</xmpG:mode>
                           <xmpG:type>PROCESS</xmpG:type>
                           <xmpG:red>241</xmpG:red>
                           <xmpG:green>90</xmpG:green>
                           <xmpG:blue>36</xmpG:blue>
                        </rdf:li>
                        <rdf:li rdf:parseType="Resource">
                           <xmpG:swatchName>R=247 G=147 B=30</xmpG:swatchName>
                           <xmpG:mode>RGB</xmpG:mode>
                           <xmpG:type>PROCESS</xmpG:type>
                           <xmpG:red>247</xmpG:red>
                           <xmpG:green>147</xmpG:green>
                           <xmpG:blue>30</xmpG:blue>
                        </rdf:li>
                        <rdf:li rdf:parseType="Resource">
                           <xmpG:swatchName>R=251 G=176 B=59</xmpG:swatchName>
                           <xmpG:mode>RGB</xmpG:mode>
                           <xmpG:type>PROCESS</xmpG:type>
                           <xmpG:red>251</xmpG:red>
                           <xmpG:green>176</xmpG:green>
                           <xmpG:blue>59</xmpG:blue>
                        </rdf:li>
                        <rdf:li rdf:parseType="Resource">
                           <xmpG:swatchName>R=252 G=238 B=33</xmpG:swatchName>
                           <xmpG:mode>RGB</xmpG:mode>
                           <xmpG:type>PROCESS</xmpG:type>
                           <xmpG:red>252</xmpG:red>
                           <xmpG:green>238</xmpG:green>
                           <xmpG:blue>33</xmpG:blue>
                        </rdf:li>
                        <rdf:li rdf:parseType="Resource">
                           <xmpG:swatchName>R=217 G=224 B=33</xmpG:swatchName>
                           <xmpG:mode>RGB</xmpG:mode>
                           <xmpG:type>PROCESS</xmpG:type>
                           <xmpG:red>217</xmpG:red>
                           <xmpG:green>224</xmpG:green>
                           <xmpG:blue>33</xmpG:blue>
                        </rdf:li>
                        <rdf:li rdf:parseType="Resource">
                           <xmpG:swatchName>R=140 G=198 B=63</xmpG:swatchName>
                           <xmpG:mode>RGB</xmpG:mode>
                           <xmpG:type>PROCESS</xmpG:type>
                           <xmpG:red>140</xmpG:red>
                           <xmpG:green>198</xmpG:green>
                           <xmpG:blue>63</xmpG:blue>
                        </rdf:li>
                        <rdf:li rdf:parseType="Resource">
                           <xmpG:swatchName>R=57 G=181 B=74</xmpG:swatchName>
                           <xmpG:mode>RGB</xmpG:mode>
                           <xmpG:type>PROCESS</xmpG:type>
                           <xmpG:red>57</xmpG:red>
                           <xmpG:green>181</xmpG:green>
                           <xmpG:blue>74</xmpG:blue>
                        </rdf:li>
                        <rdf:li rdf:parseType="Resource">
                           <xmpG:swatchName>R=0 G=146 B=69</xmpG:swatchName>
                           <xmpG:mode>RGB</xmpG:mode>
                           <xmpG:type>PROCESS</xmpG:type>
                           <xmpG:red>0</xmpG:red>
                           <xmpG:green>146</xmpG:green>
                           <xmpG:blue>69</xmpG:blue>
                        </rdf:li>
                        <rdf:li rdf:parseType="Resource">
                           <xmpG:swatchName>R=0 G=104 B=55</xmpG:swatchName>
                           <xmpG:mode>RGB</xmpG:mode>
                           <xmpG:type>PROCESS</xmpG:type>
                           <xmpG:red>0</xmpG:red>
                           <xmpG:green>104</xmpG:green>
                           <xmpG:blue>55</xmpG:blue>
                        </rdf:li>
                        <rdf:li rdf:parseType="Resource">
                           <xmpG:swatchName>R=34 G=181 B=115</xmpG:swatchName>
                           <xmpG:mode>RGB</xmpG:mode>
                           <xmpG:type>PROCESS</xmpG:type>
                           <xmpG:red>34</xmpG:red>
                           <xmpG:green>181</xmpG:green>
                           <xmpG:blue>115</xmpG:blue>
                        </rdf:li>
                        <rdf:li rdf:parseType="Resource">
                           <xmpG:swatchName>R=0 G=169 B=157</xmpG:swatchName>
                           <xmpG:mode>RGB</xmpG:mode>
                           <xmpG:type>PROCESS</xmpG:type>
                           <xmpG:red>0</xmpG:red>
                           <xmpG:green>169</xmpG:green>
                           <xmpG:blue>157</xmpG:blue>
                        </rdf:li>
                        <rdf:li rdf:parseType="Resource">
                           <xmpG:swatchName>R=41 G=171 B=226</xmpG:swatchName>
                           <xmpG:mode>RGB</xmpG:mode>
                           <xmpG:type>PROCESS</xmpG:type>
                           <xmpG:red>41</xmpG:red>
                           <xmpG:green>171</xmpG:green>
                           <xmpG:blue>226</xmpG:blue>
                        </rdf:li>
                        <rdf:li rdf:parseType="Resource">
                           <xmpG:swatchName>R=0 G=113 B=188</xmpG:swatchName>
                           <xmpG:mode>RGB</xmpG:mode>
                           <xmpG:type>PROCESS</xmpG:type>
                           <xmpG:red>0</xmpG:red>
                           <xmpG:green>113</xmpG:green>
                           <xmpG:blue>188</xmpG:blue>
                        </rdf:li>
                        <rdf:li rdf:parseType="Resource">
                           <xmpG:swatchName>R=46 G=49 B=146</xmpG:swatchName>
                           <xmpG:mode>RGB</xmpG:mode>
                           <xmpG:type>PROCESS</xmpG:type>
                           <xmpG:red>46</xmpG:red>
                           <xmpG:green>49</xmpG:green>
                           <xmpG:blue>146</xmpG:blue>
                        </rdf:li>
                        <rdf:li rdf:parseType="Resource">
                           <xmpG:swatchName>R=27 G=20 B=100</xmpG:swatchName>
                           <xmpG:mode>RGB</xmpG:mode>
                           <xmpG:type>PROCESS</xmpG:type>
                           <xmpG:red>27</xmpG:red>
                           <xmpG:green>20</xmpG:green>
                           <xmpG:blue>100</xmpG:blue>
                        </rdf:li>
                        <rdf:li rdf:parseType="Resource">
                           <xmpG:swatchName>R=102 G=45 B=145</xmpG:swatchName>
                           <xmpG:mode>RGB</xmpG:mode>
                           <xmpG:type>PROCESS</xmpG:type>
                           <xmpG:red>102</xmpG:red>
                           <xmpG:green>45</xmpG:green>
                           <xmpG:blue>145</xmpG:blue>
                        </rdf:li>
                        <rdf:li rdf:parseType="Resource">
                           <xmpG:swatchName>R=147 G=39 B=143</xmpG:swatchName>
                           <xmpG:mode>RGB</xmpG:mode>
                           <xmpG:type>PROCESS</xmpG:type>
                           <xmpG:red>147</xmpG:red>
                           <xmpG:green>39</xmpG:green>
                           <xmpG:blue>143</xmpG:blue>
                        </rdf:li>
                        <rdf:li rdf:parseType="Resource">
                           <xmpG:swatchName>R=158 G=0 B=93</xmpG:swatchName>
                           <xmpG:mode>RGB</xmpG:mode>
                           <xmpG:type>PROCESS</xmpG:type>
                           <xmpG:red>158</xmpG:red>
                           <xmpG:green>0</xmpG:green>
                           <xmpG:blue>93</xmpG:blue>
                        </rdf:li>
                        <rdf:li rdf:parseType="Resource">
                           <xmpG:swatchName>R=212 G=20 B=90</xmpG:swatchName>
                           <xmpG:mode>RGB</xmpG:mode>
                           <xmpG:type>PROCESS</xmpG:type>
                           <xmpG:red>212</xmpG:red>
                           <xmpG:green>20</xmpG:green>
                           <xmpG:blue>90</xmpG:blue>
                        </rdf:li>
                        <rdf:li rdf:parseType="Resource">
                           <xmpG:swatchName>R=237 G=30 B=121</xmpG:swatchName>
                           <xmpG:mode>RGB</xmpG:mode>
                           <xmpG:type>PROCESS</xmpG:type>
                           <xmpG:red>237</xmpG:red>
                           <xmpG:green>30</xmpG:green>
                           <xmpG:blue>121</xmpG:blue>
                        </rdf:li>
                        <rdf:li rdf:parseType="Resource">
                           <xmpG:swatchName>R=199 G=178 B=153</xmpG:swatchName>
                           <xmpG:mode>RGB</xmpG:mode>
                           <xmpG:type>PROCESS</xmpG:type>
                           <xmpG:red>199</xmpG:red>
                           <xmpG:green>178</xmpG:green>
                           <xmpG:blue>153</xmpG:blue>
                        </rdf:li>
                        <rdf:li rdf:parseType="Resource">
                           <xmpG:swatchName>R=153 G=134 B=117</xmpG:swatchName>
                           <xmpG:mode>RGB</xmpG:mode>
                           <xmpG:type>PROCESS</xmpG:type>
                           <xmpG:red>153</xmpG:red>
                           <xmpG:green>134</xmpG:green>
                           <xmpG:blue>117</xmpG:blue>
                        </rdf:li>
                        <rdf:li rdf:parseType="Resource">
                           <xmpG:swatchName>R=115 G=99 B=87</xmpG:swatchName>
                           <xmpG:mode>RGB</xmpG:mode>
                           <xmpG:type>PROCESS</xmpG:type>
                           <xmpG:red>115</xmpG:red>
                           <xmpG:green>99</xmpG:green>
                           <xmpG:blue>87</xmpG:blue>
                        </rdf:li>
                        <rdf:li rdf:parseType="Resource">
                           <xmpG:swatchName>R=83 G=71 B=65</xmpG:swatchName>
                           <xmpG:mode>RGB</xmpG:mode>
                           <xmpG:type>PROCESS</xmpG:type>
                           <xmpG:red>83</xmpG:red>
                           <xmpG:green>71</xmpG:green>
                           <xmpG:blue>65</xmpG:blue>
                        </rdf:li>
                        <rdf:li rdf:parseType="Resource">
                           <xmpG:swatchName>R=198 G=156 B=109</xmpG:swatchName>
                           <xmpG:mode>RGB</xmpG:mode>
                           <xmpG:type>PROCESS</xmpG:type>
                           <xmpG:red>198</xmpG:red>
                           <xmpG:green>156</xmpG:green>
                           <xmpG:blue>109</xmpG:blue>
                        </rdf:li>
                        <rdf:li rdf:parseType="Resource">
                           <xmpG:swatchName>R=166 G=124 B=82</xmpG:swatchName>
                           <xmpG:mode>RGB</xmpG:mode>
                           <xmpG:type>PROCESS</xmpG:type>
                           <xmpG:red>166</xmpG:red>
                           <xmpG:green>124</xmpG:green>
                           <xmpG:blue>82</xmpG:blue>
                        </rdf:li>
                        <rdf:li rdf:parseType="Resource">
                           <xmpG:swatchName>R=140 G=98 B=57</xmpG:swatchName>
                           <xmpG:mode>RGB</xmpG:mode>
                           <xmpG:type>PROCESS</xmpG:type>
                           <xmpG:red>140</xmpG:red>
                           <xmpG:green>98</xmpG:green>
                           <xmpG:blue>57</xmpG:blue>
                        </rdf:li>
                        <rdf:li rdf:parseType="Resource">
                           <xmpG:swatchName>R=117 G=76 B=36</xmpG:swatchName>
                           <xmpG:mode>RGB</xmpG:mode>
                           <xmpG:type>PROCESS</xmpG:type>
                           <xmpG:red>117</xmpG:red>
                           <xmpG:green>76</xmpG:green>
                           <xmpG:blue>36</xmpG:blue>
                        </rdf:li>
                        <rdf:li rdf:parseType="Resource">
                           <xmpG:swatchName>R=96 G=56 B=19</xmpG:swatchName>
                           <xmpG:mode>RGB</xmpG:mode>
                           <xmpG:type>PROCESS</xmpG:type>
                           <xmpG:red>96</xmpG:red>
                           <xmpG:green>56</xmpG:green>
                           <xmpG:blue>19</xmpG:blue>
                        </rdf:li>
                        <rdf:li rdf:parseType="Resource">
                           <xmpG:swatchName>R=66 G=33 B=11</xmpG:swatchName>
                           <xmpG:mode>RGB</xmpG:mode>
                           <xmpG:type>PROCESS</xmpG:type>
                           <xmpG:red>66</xmpG:red>
                           <xmpG:green>33</xmpG:green>
                           <xmpG:blue>11</xmpG:blue>
                        </rdf:li>
                     </rdf:Seq>
                  </xmpG:Colorants>
               </rdf:li>
               <rdf:li rdf:parseType="Resource">
                  <xmpG:groupName>灰階</xmpG:groupName>
                  <xmpG:groupType>1</xmpG:groupType>
                  <xmpG:Colorants>
                     <rdf:Seq>
                        <rdf:li rdf:parseType="Resource">
                           <xmpG:swatchName>R=0 G=0 B=0</xmpG:swatchName>
                           <xmpG:mode>RGB</xmpG:mode>
                           <xmpG:type>PROCESS</xmpG:type>
                           <xmpG:red>0</xmpG:red>
                           <xmpG:green>0</xmpG:green>
                           <xmpG:blue>0</xmpG:blue>
                        </rdf:li>
                        <rdf:li rdf:parseType="Resource">
                           <xmpG:swatchName>R=26 G=26 B=26</xmpG:swatchName>
                           <xmpG:mode>RGB</xmpG:mode>
                           <xmpG:type>PROCESS</xmpG:type>
                           <xmpG:red>26</xmpG:red>
                           <xmpG:green>26</xmpG:green>
                           <xmpG:blue>26</xmpG:blue>
                        </rdf:li>
                        <rdf:li rdf:parseType="Resource">
                           <xmpG:swatchName>R=51 G=51 B=51</xmpG:swatchName>
                           <xmpG:mode>RGB</xmpG:mode>
                           <xmpG:type>PROCESS</xmpG:type>
                           <xmpG:red>51</xmpG:red>
                           <xmpG:green>51</xmpG:green>
                           <xmpG:blue>51</xmpG:blue>
                        </rdf:li>
                        <rdf:li rdf:parseType="Resource">
                           <xmpG:swatchName>R=77 G=77 B=77</xmpG:swatchName>
                           <xmpG:mode>RGB</xmpG:mode>
                           <xmpG:type>PROCESS</xmpG:type>
                           <xmpG:red>77</xmpG:red>
                           <xmpG:green>77</xmpG:green>
                           <xmpG:blue>77</xmpG:blue>
                        </rdf:li>
                        <rdf:li rdf:parseType="Resource">
                           <xmpG:swatchName>R=102 G=102 B=102</xmpG:swatchName>
                           <xmpG:mode>RGB</xmpG:mode>
                           <xmpG:type>PROCESS</xmpG:type>
                           <xmpG:red>102</xmpG:red>
                           <xmpG:green>102</xmpG:green>
                           <xmpG:blue>102</xmpG:blue>
                        </rdf:li>
                        <rdf:li rdf:parseType="Resource">
                           <xmpG:swatchName>R=128 G=128 B=128</xmpG:swatchName>
                           <xmpG:mode>RGB</xmpG:mode>
                           <xmpG:type>PROCESS</xmpG:type>
                           <xmpG:red>128</xmpG:red>
                           <xmpG:green>128</xmpG:green>
                           <xmpG:blue>128</xmpG:blue>
                        </rdf:li>
                        <rdf:li rdf:parseType="Resource">
                           <xmpG:swatchName>R=153 G=153 B=153</xmpG:swatchName>
                           <xmpG:mode>RGB</xmpG:mode>
                           <xmpG:type>PROCESS</xmpG:type>
                           <xmpG:red>153</xmpG:red>
                           <xmpG:green>153</xmpG:green>
                           <xmpG:blue>153</xmpG:blue>
                        </rdf:li>
                        <rdf:li rdf:parseType="Resource">
                           <xmpG:swatchName>R=179 G=179 B=179</xmpG:swatchName>
                           <xmpG:mode>RGB</xmpG:mode>
                           <xmpG:type>PROCESS</xmpG:type>
                           <xmpG:red>179</xmpG:red>
                           <xmpG:green>179</xmpG:green>
                           <xmpG:blue>179</xmpG:blue>
                        </rdf:li>
                        <rdf:li rdf:parseType="Resource">
                           <xmpG:swatchName>R=204 G=204 B=204</xmpG:swatchName>
                           <xmpG:mode>RGB</xmpG:mode>
                           <xmpG:type>PROCESS</xmpG:type>
                           <xmpG:red>204</xmpG:red>
                           <xmpG:green>204</xmpG:green>
                           <xmpG:blue>204</xmpG:blue>
                        </rdf:li>
                        <rdf:li rdf:parseType="Resource">
                           <xmpG:swatchName>R=230 G=230 B=230</xmpG:swatchName>
                           <xmpG:mode>RGB</xmpG:mode>
                           <xmpG:type>PROCESS</xmpG:type>
                           <xmpG:red>230</xmpG:red>
                           <xmpG:green>230</xmpG:green>
                           <xmpG:blue>230</xmpG:blue>
                        </rdf:li>
                        <rdf:li rdf:parseType="Resource">
                           <xmpG:swatchName>R=242 G=242 B=242</xmpG:swatchName>
                           <xmpG:mode>RGB</xmpG:mode>
                           <xmpG:type>PROCESS</xmpG:type>
                           <xmpG:red>242</xmpG:red>
                           <xmpG:green>242</xmpG:green>
                           <xmpG:blue>242</xmpG:blue>
                        </rdf:li>
                     </rdf:Seq>
                  </xmpG:Colorants>
               </rdf:li>
               <rdf:li rdf:parseType="Resource">
                  <xmpG:groupName>網頁顏色群組</xmpG:groupName>
                  <xmpG:groupType>1</xmpG:groupType>
                  <xmpG:Colorants>
                     <rdf:Seq>
                        <rdf:li rdf:parseType="Resource">
                           <xmpG:swatchName>R=63 G=169 B=245</xmpG:swatchName>
                           <xmpG:mode>RGB</xmpG:mode>
                           <xmpG:type>PROCESS</xmpG:type>
                           <xmpG:red>63</xmpG:red>
                           <xmpG:green>169</xmpG:green>
                           <xmpG:blue>245</xmpG:blue>
                        </rdf:li>
                        <rdf:li rdf:parseType="Resource">
                           <xmpG:swatchName>R=122 G=201 B=67</xmpG:swatchName>
                           <xmpG:mode>RGB</xmpG:mode>
                           <xmpG:type>PROCESS</xmpG:type>
                           <xmpG:red>122</xmpG:red>
                           <xmpG:green>201</xmpG:green>
                           <xmpG:blue>67</xmpG:blue>
                        </rdf:li>
                        <rdf:li rdf:parseType="Resource">
                           <xmpG:swatchName>R=255 G=147 B=30</xmpG:swatchName>
                           <xmpG:mode>RGB</xmpG:mode>
                           <xmpG:type>PROCESS</xmpG:type>
                           <xmpG:red>255</xmpG:red>
                           <xmpG:green>147</xmpG:green>
                           <xmpG:blue>30</xmpG:blue>
                        </rdf:li>
                        <rdf:li rdf:parseType="Resource">
                           <xmpG:swatchName>R=255 G=29 B=37</xmpG:swatchName>
                           <xmpG:mode>RGB</xmpG:mode>
                           <xmpG:type>PROCESS</xmpG:type>
                           <xmpG:red>255</xmpG:red>
                           <xmpG:green>29</xmpG:green>
                           <xmpG:blue>37</xmpG:blue>
                        </rdf:li>
                        <rdf:li rdf:parseType="Resource">
                           <xmpG:swatchName>R=255 G=123 B=172</xmpG:swatchName>
                           <xmpG:mode>RGB</xmpG:mode>
                           <xmpG:type>PROCESS</xmpG:type>
                           <xmpG:red>255</xmpG:red>
                           <xmpG:green>123</xmpG:green>
                           <xmpG:blue>172</xmpG:blue>
                        </rdf:li>
                        <rdf:li rdf:parseType="Resource">
                           <xmpG:swatchName>R=189 G=204 B=212</xmpG:swatchName>
                           <xmpG:mode>RGB</xmpG:mode>
                           <xmpG:type>PROCESS</xmpG:type>
                           <xmpG:red>189</xmpG:red>
                           <xmpG:green>204</xmpG:green>
                           <xmpG:blue>212</xmpG:blue>
                        </rdf:li>
                     </rdf:Seq>
                  </xmpG:Colorants>
               </rdf:li>
            </rdf:Seq>
         </xmpTPg:SwatchGroups>
         <pdf:Producer>Adobe PDF library 18.00</pdf:Producer>
         <pdfx:CreatorVersion>21.0.0</pdfx:CreatorVersion>
      </rdf:Description>
   </rdf:RDF>
</x:xmpmeta>
                                                                                                    
                                                                                                    
                                                                                                    
                                                                                                    
                                                                                                    
                                                                                                    
                                                                                                    
                                                                                                    
                                                                                                    
                                                                                                    
                                                                                                    
                                                                                                    
                                                                                                    
                                                                                                    
                                                                                                    
                                                                                                    
                                                                                                    
                                                                                                    
                                                                                                    
                                                                                                    
                           
<?xpacket end="w"?>
  </metadata>
</svg>